<!--
  ========================LICENSE_START=================================
  screenit-clientportaal
  %%
  Copyright (C) 2012 - 2025 Facilitaire Samenwerking Bevolkingsonderzoek
  %%
  This program is free software: you can redistribute it and/or modify
  it under the terms of the GNU Affero General Public License as published by
  the Free Software Foundation, either version 3 of the License, or
  (at your option) any later version.
  
  This program is distributed in the hope that it will be useful,
  but WITHOUT ANY WARRANTY; without even the implied warranty of
  MERCHANTABILITY or FITNESS FOR A PARTICULAR PURPOSE.  See the
  GNU General Public License for more details.
  
  You should have received a copy of the GNU Affero General Public License
  along with this program.  If not, see <http://www.gnu.org/licenses/>.
  =========================LICENSE_END==================================
  -->
<svg version="1" xmlns="http://www.w3.org/2000/svg" width="933.333" height="933.333" viewBox="0 0 700.000000 700.000000"><path d="M308.5 23.5c-32.9 5.2-62.7 20.6-87 44.9-20 20-33.2 42.7-40.6 69.4-2 7.3-2.5 8.2-4.6 8.2-1.3 0-6.7.9-12 2.1-76.8 16.6-130.9 89.6-124.4 167.8 1 11.9 3.7 27.4 5.6 32.2.3.9-.7 3.1-2.6 5.5-6 7.4-15.1 21.9-19.4 30.9C-6.3 446.8 5.9 519 54.4 567.6c21.7 21.6 46.5 35.1 78.3 42.5 12.6 2.9 44.8 3.8 58.9 1.6 5.6-.9 10.7-1.9 11.6-2.2 1-.4 2.9 1.2 5.8 5.1 6.1 8.1 17.3 19.7 25.5 26.4 42.9 35.1 98.6 45.6 150.4 28.4 47.7-15.8 85.5-53.7 101-101.1 4.7-14.3 8.1-33.7 8.1-46.4v-4.5l7.2 1.8c3.9 1 13.3 2.3 20.9 3 15.7 1.3 33.1.1 48.1-3.2 63.5-14 110.9-63.8 121.9-128.1 3-17.3 2.3-45.2-1.4-60.9-7.2-30.1-19.8-53.5-40.7-75.3-19.2-20.2-42.3-34.4-68.4-42.3-19.1-5.8-40.1-8.1-57.3-6.4-9.8 1-29.1 4.7-33.7 6.6-1.7.6-1.8.3-1.3-2.7 2.2-13.4 3-30.7 1.9-42.7-7-74.8-60.8-132.6-133.7-143.8-11.1-1.7-38.1-1.6-49 .1zm40.3 80.1c30.5 6.2 53.3 27.9 60.3 57.2 3 12.5 2.3 33.1-1.4 44.7-7 21.4-25 40.1-46.7 48.5-4.5 1.7-8.9 3-9.7 2.8-.8-.2-3.1-4.6-5.2-9.9-2.1-5.3-5.7-13.1-7.9-17.3-2.3-4.3-4.2-7.9-4.2-8 0-.2 2.7-.6 6.1-.9 12.1-1.1 24.6-10.2 30.5-22.2 2.7-5.5 2.9-6.9 2.9-17 0-10.3-.2-11.4-3.2-17.7-4.1-8.6-11.4-16-19.7-19.9-22.6-10.6-49.8 2.8-56.5 27.8l-1.2 4.2-8.2-5.3c-4.5-3-12.1-7.3-16.8-9.7l-8.7-4.2 1.3-3.7c8.7-24.6 30.8-43.7 57-49.3 9.3-2 21.8-2.1 31.3-.1zM184.5 234c1 3 4.4 10.8 7.6 17.2 3.3 6.5 5.9 11.9 5.9 12.1 0 .3-2.1.7-4.8 1-15.6 1.8-30 14.3-33.6 28.9-.7 3.1-.7 3.1-14.8 4.8-5.3.6-13.1 1.9-17.2 2.9l-7.6 1.8v-3.9c0-5.8 2.9-18.5 5.7-25.3 4.9-11.7 16.2-25.8 27.3-34.1 8.2-6 27.1-13.5 29.1-11.5.4.3 1.4 3.1 2.4 6.1zm375.8 55.7c24.7 8.6 42.8 27.6 50.9 53.3 1.9 6.3 2.3 9.6 2.3 21 0 16-1.5 22.3-7.9 35.5-9.7 19.6-25.1 32.8-46.1 39.5-10 3.2-30.2 3.9-41.1 1.5-14.6-3.2-25.8-9-36.2-18.8-10.7-10.2-18.4-23.4-22.2-38.1-2.7-10.8-2.7-27.3 0-38.2 6.1-24.3 25.1-45.9 47.9-54.5 10.4-3.9 16.9-4.9 30.6-4.5 11.4.2 14.1.7 21.8 3.3zm-297.7 32.4c4.6 2.1 8.8 3.9 9.3 3.9 1.4 0 1.4-.2-.5 5.3l-1.6 4.6-6.3-5.2c-3.5-2.9-10.5-7.8-15.7-11-9.1-5.6-9.4-5.9-9-9.1l.4-3.4 7.6 5.5c4.2 3 11.3 7.2 15.8 9.4zm116.5 16.6c-.5 3.7-1.3 11.4-1.7 17-.7 9.8-.8 10.2-2.8 9.8-7.3-1.7-17-3.5-22.4-4.1-4-.4-6.1-1.1-5.8-1.8.3-.6 1.9-5.6 3.7-11.1 1.7-5.5 3.3-10.1 3.4-10.3.2-.2 4.5-1.2 9.8-2.3 5.2-1 11-2.5 12.8-3.3 1.9-.8 3.6-1.3 3.7-1.1.2.2-.1 3.4-.7 7.2zm-192.1 41l4.5 1.3-5.2-.5c-2.8-.3-6.9-1.2-9-2l-3.8-1.4 4.5.6c2.5.4 6.5 1.2 9 2zm-85.4 49.7c4 2.9 11.2 7.7 16.2 10.5l9 5.2-1 3.7c-2.7 9.9.8 23.1 8.7 32.8 8.9 10.9 28.3 17.2 41.3 13.5l3.2-1-.7 5.7c-.5 3.1-.8 11.7-.8 19 0 15.8 1.2 14.7-15.9 14-35.2-1.6-64.7-26.1-72.1-60.1-2.4-11-1.7-31.3 1.5-41.5 1.3-3.9 2.6-7.2 2.9-7.2.3 0 3.8 2.4 7.7 5.4zm250.7 13.2c4 .8 11.9 3.8 17.6 6.6 9.1 4.4 11.6 6.1 19.6 14.1 13.5 13.5 20 25.5 23.1 42.7 1.8 9.8 1.7 15.9-.1 26.5-2.8 15.8-9.8 29.2-21.7 41.3-15.6 15.8-33.3 23.3-55.3 23.3-21.7 0-39.4-7.3-56.2-23.4l-4.3-4.1 5.9-6c3.1-3.4 8.6-9.9 12-14.6 3.5-4.7 6.6-8.6 7-8.7.3-.1 2 1.7 3.6 4 4.4 6 12 11.4 19.4 13.7 33.7 10.5 64.2-22.9 49.7-54.5-3.2-7.2-12.1-16.4-19-19.9-9.7-4.9-21.7-5.7-30.8-2.1-1.4.6-1.5.2-.7-3.2.5-2.1.9-11.1.9-20 0-11.9.3-16.3 1.3-16.6 2.8-1.2 21.3-.6 28 .9z"/><path d="M522.6 326c-11.3 4.1-18.7 10.8-24 22-4.3 9-4.9 21.2-1.6 30.3 4.1 11.3 10.6 18.3 21.8 23.5 5 2.4 6.9 2.7 16.2 2.7 9.9 0 10.9-.2 17.4-3.4 25.4-12.4 31.2-42.7 12.1-63.9-10.2-11.3-28.1-16.1-41.9-11.2z"/></svg>
