<?xml version="1.0" standalone="no"?>
<!DOCTYPE svg PUBLIC "-//W3C//DTD SVG 20010904//EN" "http://www.w3.org/TR/2001/REC-SVG-20010904/DTD/svg10.dtd">
<svg version="1.0" xmlns="http://www.w3.org/2000/svg"
     width="815.000000px" height="550.000000px" viewBox="0 0 815.000000 550.000000"
     preserveAspectRatio="xMidYMid meet">

    <g transform="translate(0.000000,550.000000) scale(0.100000,-0.100000)"
       fill="#000000" stroke="none">
        <path d="M890 5470 c0 -15 136 -91 375 -210 472 -233 689 -307 1116 -379 573
-96 771 -76 794 82 11 75 1 420 -12 424 -9 3 -12 -53 -15 -219 -3 -258 -6
-265 -85 -292 -112 -39 -280 -30 -663 35 -347 59 -516 106 -782 220 -166 71
-460 214 -603 293 -98 55 -125 65 -125 46z"/>
        <path d="M7165 5444 c-137 -80 -565 -286 -731 -351 -203 -80 -305 -110 -519
-152 -504 -101 -816 -112 -889 -33 -26 29 -37 151 -30 325 6 135 5 159 -7 155
-31 -10 -35 -401 -4 -475 28 -66 149 -99 328 -90 204 10 657 87 872 148 160
44 361 127 625 255 283 138 440 224 440 241 0 20 -20 15 -85 -23z"/>
        <path d="M2114 4568 c-56 -52 -57 -84 -4 -110 19 -9 161 -51 315 -93 322 -88
429 -122 794 -251 145 -52 276 -94 292 -94 20 0 34 8 46 26 22 34 30 129 12
150 -64 78 -1155 414 -1342 414 -65 0 -69 -1 -113 -42z m342 -34 c399 -101
733 -206 969 -301 134 -55 137 -59 115 -139 -9 -30 -18 -44 -30 -44 -9 0 -109
33 -221 74 -324 117 -584 200 -864 275 -143 38 -272 74 -287 80 -44 17 -45 32
-3 68 53 46 99 44 321 -13z"/>
        <path d="M5750 4584 c-260 -67 -515 -139 -671 -190 -187 -60 -463 -165 -495
-188 -15 -11 -19 -26 -17 -65 2 -67 29 -115 68 -119 18 -2 112 27 235 71 326
118 585 200 866 276 144 39 278 78 298 87 60 29 58 64 -9 123 -33 29 -41 31
-108 30 -41 0 -113 -11 -167 -25z m250 -27 c51 -44 54 -54 23 -70 -15 -8 -156
-49 -313 -92 -287 -77 -558 -164 -879 -281 -96 -35 -183 -64 -193 -64 -23 0
-52 93 -38 120 6 11 65 40 142 71 246 96 463 165 858 270 287 76 357 84 400
46z"/>
        <path d="M10 4266 c0 -7 66 -70 148 -138 288 -245 436 -391 684 -680 252 -293
347 -435 493 -733 158 -323 198 -452 269 -865 111 -644 142 -954 164 -1640 6
-164 10 -205 21 -205 16 0 16 97 1 435 -19 413 -50 773 -86 1000 -4 26 7 10
39 -56 59 -121 111 -196 184 -266 165 -156 378 -244 687 -284 298 -38 546 10
789 152 235 137 377 306 449 534 31 99 33 318 4 420 -74 258 -254 490 -518
667 -109 73 -223 125 -440 203 l-148 52 0 379 c0 329 -2 379 -15 379 -13 0
-15 -51 -17 -375 l-3 -375 -140 48 c-460 160 -696 293 -925 522 -96 95 -131
138 -310 370 -167 217 -266 302 -357 304 -37 1 -49 -4 -69 -27 -21 -25 -24
-38 -24 -108 0 -176 51 -324 227 -654 136 -258 202 -400 271 -585 71 -192 71
-203 -1 -55 -122 251 -245 453 -366 600 -229 281 -463 532 -661 709 -153 137
-331 286 -342 286 -4 0 -8 -6 -8 -14z m1045 -204 c52 -25 185 -171 315 -342
147 -195 348 -402 490 -503 155 -110 468 -254 758 -348 l102 -33 0 -322 0
-322 -67 -12 c-174 -30 -301 -149 -334 -313 l-12 -57 -328 0 c-303 0 -328 1
-333 18 -3 9 -21 105 -41 212 -94 511 -189 783 -445 1270 -180 342 -226 463
-237 621 -3 48 -3 98 0 111 12 46 64 54 132 20z m1817 -1278 c158 -55 317
-122 383 -162 315 -189 523 -457 579 -744 l14 -68 -343 0 c-384 0 -346 -8
-360 74 -24 143 -164 267 -333 297 l-62 11 0 314 c0 180 4 314 9 314 5 0 56
-16 113 -36z m-62 -634 c209 -40 344 -221 309 -414 -35 -193 -207 -319 -414
-303 -179 13 -310 117 -351 277 -66 258 178 493 456 440z m-495 -412 c29 -174
158 -300 339 -331 l66 -11 0 -272 0 -273 -32 4 c-140 19 -196 29 -285 51 -348
86 -553 265 -667 582 -25 69 -76 259 -76 281 0 8 101 11 324 11 l324 0 7 -42z
m1532 -50 c-18 -297 -202 -545 -523 -706 -163 -83 -297 -120 -456 -129 l-118
-6 0 274 0 275 66 11 c136 23 241 99 299 215 19 39 35 80 35 92 0 11 3 31 6
44 l6 22 346 0 345 0 -6 -92z"/>
        <path d="M2673 1890 c-41 -24 -53 -48 -53 -102 0 -50 19 -82 60 -103 53 -28
120 -11 154 37 21 29 20 102 0 134 -35 53 -105 68 -161 34z m125 -46 c31 -36
29 -79 -7 -115 -36 -36 -70 -37 -110 -3 -44 37 -44 91 1 129 38 32 81 29 116
-11z"/>
        <path d="M8023 4198 c-296 -246 -534 -482 -783 -776 -228 -271 -307 -392 -470
-722 -44 -90 -80 -161 -80 -158 0 13 74 219 117 323 24 61 101 220 170 355
182 353 202 395 234 492 46 137 62 304 34 357 -20 40 -62 55 -112 42 -95 -26
-181 -109 -373 -361 -190 -249 -323 -385 -505 -515 -142 -102 -403 -222 -697
-321 l-128 -43 0 375 c0 326 -2 374 -15 374 -13 0 -15 -49 -15 -379 l0 -379
-107 -37 c-253 -87 -399 -155 -518 -240 -232 -166 -393 -372 -467 -595 -26
-79 -32 -115 -36 -218 -5 -140 5 -210 49 -324 94 -244 341 -458 653 -567 173
-61 351 -75 571 -46 175 23 308 60 430 120 220 107 353 243 437 447 17 43 33
76 34 75 2 -2 -3 -45 -11 -97 -22 -146 -43 -350 -54 -515 -9 -134 -15 -241
-37 -733 -5 -113 -3 -132 9 -132 16 0 17 12 37 470 23 537 51 784 150 1362 79
460 121 590 313 962 120 233 194 346 352 536 296 355 496 558 803 813 118 99
152 137 123 137 -5 0 -54 -37 -108 -82z m-803 -151 c12 -22 12 -41 3 -129 -18
-158 -52 -244 -234 -603 -272 -537 -346 -742 -434 -1210 -19 -104 -40 -214
-46 -242 l-10 -53 -333 0 -333 0 -5 49 c-15 152 -160 291 -335 322 l-63 11 0
322 0 322 58 18 c212 67 563 215 689 291 230 140 395 301 638 625 91 120 212
250 261 281 71 43 117 42 144 -4z m-1820 -1541 l0 -314 -67 -12 c-178 -31
-316 -162 -339 -322 l-6 -48 -345 0 -344 0 6 38 c49 296 262 578 583 771 76
45 213 104 407 173 117 42 105 74 105 -286z m91 -366 c185 -34 309 -175 309
-350 0 -282 -319 -448 -591 -309 -58 29 -127 101 -155 163 -123 269 127 554
437 496z m-496 -415 c20 -162 160 -297 341 -328 l64 -11 0 -270 0 -269 -117 6
c-237 12 -483 109 -684 272 -182 147 -299 375 -299 582 l0 73 344 0 344 0 7
-55z m1495 49 c0 -16 -53 -208 -74 -269 -54 -157 -106 -247 -194 -338 -172
-177 -376 -262 -754 -311 l-38 -5 0 268 0 267 66 11 c177 31 317 168 332 325
l5 58 328 0 c181 0 329 -3 329 -6z"/>
        <path d="M5352 1890 c-96 -59 -66 -212 44 -227 76 -10 134 43 134 122 0 100
-95 156 -178 105z m126 -56 c27 -31 28 -63 2 -97 -40 -50 -121 -42 -145 17
-37 88 78 153 143 80z"/>
        <path d="M2670 335 c0 -104 2 -125 15 -125 12 0 15 13 15 55 0 46 3 55 18 55
30 0 50 -22 62 -67 8 -31 16 -43 29 -43 18 0 18 3 5 47 -8 26 -19 52 -24 57
-6 6 -2 18 10 34 45 57 5 112 -81 112 l-49 0 0 -125z m94 89 c10 -4 16 -18 16
-35 0 -22 -6 -32 -26 -39 -47 -18 -54 -14 -54 35 0 41 2 45 24 45 13 0 31 -3
40 -6z"/>
        <path d="M5340 310 l0 -120 65 0 c51 0 65 3 65 15 0 11 -12 15 -50 15 l-50 0
0 105 c0 87 -3 105 -15 105 -12 0 -15 -20 -15 -120z"/>
    </g>
</svg>
