<?xml version="1.0" encoding="UTF-8"?>
<!DOCTYPE svg PUBLIC "-//W3C//DTD SVG 20010904//EN" "http://www.w3.org/TR/2001/REC-SVG-20010904/DTD/svg10.dtd">
<svg width="38px" height="26px" viewBox="0 0 38 26" version="1.1" xmlns="http://www.w3.org/2000/svg"
>
    <!-- Generator: Sketch 49 (51002) - http://www.bohemiancoding.com/sketch -->
    <title>Icons/Dubbelzijdige-borstverkleining</title>
    <desc>Created with Sketch.</desc>
    <defs></defs>
    <g id="Icons/Dubbelzijdige-borstverkleining" stroke="none" stroke-width="1" fill="none" fill-rule="evenodd">
        <g id="Rechts" transform="translate(21.000000, 1.000000)" stroke="#D0021B">
            <circle id="Oval" cx="8" cy="8" r="8"></circle>
            <circle id="Oval-Copy" cx="8" cy="8" r="2"></circle>
            <path d="M8,16 L8,22" id="Line" stroke-linecap="square"></path>
            <path d="M6,18.5 L10,18.5" id="Line-Copy" stroke-width="0.5" stroke-linecap="square"></path>
            <path d="M6,20.5 L10,20.5" id="Line-Copy-2" stroke-width="0.5" stroke-linecap="square"></path>
            <path d="M0,22 C0,22 4,24 8,24 C12,24 16,22 16,22" id="Line" stroke-linecap="square"></path>
        </g>
        <g id="Links" transform="translate(1.000000, 1.000000)" stroke="#D0021B">
            <circle id="Oval" cx="8" cy="8" r="8"></circle>
            <circle id="Oval-Copy" cx="8" cy="8" r="2"></circle>
            <path d="M8,16 L8,22" id="Line" stroke-linecap="square"></path>
            <path d="M6,18.5 L10,18.5" id="Line-Copy" stroke-width="0.5" stroke-linecap="square"></path>
            <path d="M6,20.5 L10,20.5" id="Line-Copy-2" stroke-width="0.5" stroke-linecap="square"></path>
            <path d="M0,22 C0,22 4,24 8,24 C12,24 16,22 16,22" id="Line" stroke-linecap="square"></path>
        </g>
    </g>
</svg>